<?xml version="1.0" standalone="no"?>
<svg viewBox="0 0 200 200" xmlns="http://www.w3.org/2000/svg">
  <path fill="#FF0000" d="M43.6,-74.1C57.7,-67.3,71.3,-58.1,78.7,-45.4C86.1,-32.7,87.2,-16.3,86.9,-0.2C86.6,15.9,84.7,31.9,78.2,46.1C71.6,60.3,60.4,72.7,46.6,80C32.8,87.2,16.4,89.3,-0.1,89.5C-16.7,89.8,-33.3,88.2,-47.3,81C-61.4,73.9,-72.8,61.2,-79.4,46.8C-86,32.4,-87.8,16.2,-87.9,-0.1C-88,-16.3,-86.4,-32.7,-78.9,-45.5C-71.4,-58.4,-58,-67.7,-43.8,-74.5C-29.7,-81.4,-14.8,-85.6,-0.1,-85.5C14.7,-85.4,29.4,-80.9,43.6,-74.1Z" transform="translate(100 100)" />
</svg>
